<mxfile host="app.diagrams.net" modified="2022-11-15T11:16:32.987Z" agent="5.0 (Windows NT 10.0; Win64; x64) AppleWebKit/537.36 (KHTML, like Gecko) Chrome/107.0.0.0 Safari/537.36" etag="sRm3Z5JuRLNZj3ZyyM1Z" version="20.5.3" type="github">
  <diagram id="LQl_Lj7C5tMHeCtGHXHI" name="Pagina-1">
    <mxGraphModel dx="1038" dy="539" grid="1" gridSize="10" guides="1" tooltips="1" connect="1" arrows="1" fold="1" page="1" pageScale="1" pageWidth="827" pageHeight="1169" math="0" shadow="0">
      <root>
        <mxCell id="0" />
        <mxCell id="1" parent="0" />
        <mxCell id="Ey8_S2lmnpYbXv3XXxtO-1" value="SMPExpress" style="text;html=1;align=center;verticalAlign=middle;resizable=0;points=[];autosize=1;strokeColor=none;fillColor=none;" vertex="1" parent="1">
          <mxGeometry x="264" y="60" width="90" height="20" as="geometry" />
        </mxCell>
        <mxCell id="Ey8_S2lmnpYbXv3XXxtO-2" style="edgeStyle=orthogonalEdgeStyle;rounded=0;orthogonalLoop=1;jettySize=auto;html=1;entryX=0.482;entryY=1.07;entryDx=0;entryDy=0;entryPerimeter=0;" edge="1" parent="1" source="Ey8_S2lmnpYbXv3XXxtO-4">
          <mxGeometry relative="1" as="geometry">
            <mxPoint x="219.3159999999998" y="210" as="targetPoint" />
          </mxGeometry>
        </mxCell>
        <mxCell id="Ey8_S2lmnpYbXv3XXxtO-3" style="edgeStyle=orthogonalEdgeStyle;rounded=0;orthogonalLoop=1;jettySize=auto;html=1;exitX=1;exitY=0.25;exitDx=0;exitDy=0;entryX=0;entryY=0.25;entryDx=0;entryDy=0;" edge="1" parent="1" source="Ey8_S2lmnpYbXv3XXxtO-4" target="Ey8_S2lmnpYbXv3XXxtO-11">
          <mxGeometry relative="1" as="geometry" />
        </mxCell>
        <mxCell id="Ey8_S2lmnpYbXv3XXxtO-39" style="edgeStyle=orthogonalEdgeStyle;rounded=0;orthogonalLoop=1;jettySize=auto;html=1;exitX=0.25;exitY=1;exitDx=0;exitDy=0;entryX=0;entryY=0.75;entryDx=0;entryDy=0;" edge="1" parent="1" source="Ey8_S2lmnpYbXv3XXxtO-4" target="Ey8_S2lmnpYbXv3XXxtO-24">
          <mxGeometry relative="1" as="geometry" />
        </mxCell>
        <mxCell id="Ey8_S2lmnpYbXv3XXxtO-4" value="Customer Service" style="rounded=1;whiteSpace=wrap;html=1;" vertex="1" parent="1">
          <mxGeometry x="160" y="266.5" width="120" height="60" as="geometry" />
        </mxCell>
        <mxCell id="Ey8_S2lmnpYbXv3XXxtO-5" style="edgeStyle=orthogonalEdgeStyle;rounded=0;orthogonalLoop=1;jettySize=auto;html=1;exitX=0;exitY=0.75;exitDx=0;exitDy=0;entryX=1;entryY=0.75;entryDx=0;entryDy=0;" edge="1" parent="1" source="Ey8_S2lmnpYbXv3XXxtO-7" target="Ey8_S2lmnpYbXv3XXxtO-11">
          <mxGeometry relative="1" as="geometry" />
        </mxCell>
        <mxCell id="Ey8_S2lmnpYbXv3XXxtO-6" style="edgeStyle=orthogonalEdgeStyle;rounded=0;orthogonalLoop=1;jettySize=auto;html=1;entryX=0.526;entryY=1.07;entryDx=0;entryDy=0;entryPerimeter=0;" edge="1" parent="1" source="Ey8_S2lmnpYbXv3XXxtO-7" target="Ey8_S2lmnpYbXv3XXxtO-17">
          <mxGeometry relative="1" as="geometry" />
        </mxCell>
        <mxCell id="Ey8_S2lmnpYbXv3XXxtO-37" style="edgeStyle=orthogonalEdgeStyle;rounded=0;orthogonalLoop=1;jettySize=auto;html=1;exitX=0.75;exitY=1;exitDx=0;exitDy=0;entryX=1;entryY=0.75;entryDx=0;entryDy=0;" edge="1" parent="1" source="Ey8_S2lmnpYbXv3XXxtO-7" target="Ey8_S2lmnpYbXv3XXxtO-24">
          <mxGeometry relative="1" as="geometry" />
        </mxCell>
        <mxCell id="Ey8_S2lmnpYbXv3XXxtO-7" value="Products Service" style="rounded=1;whiteSpace=wrap;html=1;" vertex="1" parent="1">
          <mxGeometry x="575" y="266.5" width="120" height="60" as="geometry" />
        </mxCell>
        <mxCell id="Ey8_S2lmnpYbXv3XXxtO-8" style="edgeStyle=orthogonalEdgeStyle;rounded=0;orthogonalLoop=1;jettySize=auto;html=1;exitX=0;exitY=0.75;exitDx=0;exitDy=0;entryX=1;entryY=0.75;entryDx=0;entryDy=0;" edge="1" parent="1" source="Ey8_S2lmnpYbXv3XXxtO-11" target="Ey8_S2lmnpYbXv3XXxtO-4">
          <mxGeometry relative="1" as="geometry" />
        </mxCell>
        <mxCell id="Ey8_S2lmnpYbXv3XXxtO-9" style="edgeStyle=orthogonalEdgeStyle;rounded=0;orthogonalLoop=1;jettySize=auto;html=1;exitX=1;exitY=0.25;exitDx=0;exitDy=0;entryX=0;entryY=0.25;entryDx=0;entryDy=0;" edge="1" parent="1" source="Ey8_S2lmnpYbXv3XXxtO-11" target="Ey8_S2lmnpYbXv3XXxtO-7">
          <mxGeometry relative="1" as="geometry" />
        </mxCell>
        <mxCell id="Ey8_S2lmnpYbXv3XXxtO-10" style="edgeStyle=orthogonalEdgeStyle;rounded=0;orthogonalLoop=1;jettySize=auto;html=1;entryX=0.526;entryY=1;entryDx=0;entryDy=0;entryPerimeter=0;" edge="1" parent="1" source="Ey8_S2lmnpYbXv3XXxtO-11" target="Ey8_S2lmnpYbXv3XXxtO-15">
          <mxGeometry relative="1" as="geometry" />
        </mxCell>
        <mxCell id="Ey8_S2lmnpYbXv3XXxtO-31" style="edgeStyle=orthogonalEdgeStyle;rounded=0;orthogonalLoop=1;jettySize=auto;html=1;exitX=0.75;exitY=1;exitDx=0;exitDy=0;entryX=0.75;entryY=0;entryDx=0;entryDy=0;" edge="1" parent="1" source="Ey8_S2lmnpYbXv3XXxtO-11" target="Ey8_S2lmnpYbXv3XXxtO-24">
          <mxGeometry relative="1" as="geometry" />
        </mxCell>
        <mxCell id="Ey8_S2lmnpYbXv3XXxtO-11" value="Order Service" style="rounded=1;whiteSpace=wrap;html=1;" vertex="1" parent="1">
          <mxGeometry x="375" y="266.5" width="120" height="60" as="geometry" />
        </mxCell>
        <mxCell id="Ey8_S2lmnpYbXv3XXxtO-12" value="" style="sketch=0;aspect=fixed;html=1;points=[];align=center;image;fontSize=12;image=img/lib/mscae/aspect=fixed;html=1;perimeter=none;align=center;shadow=0;dashed=0;image;fontSize=12;image=img/lib/mscae/Azure_Database_for_MariaDB_servers.svg;" vertex="1" parent="1">
          <mxGeometry x="201" y="160" width="38" height="50" as="geometry" />
        </mxCell>
        <mxCell id="Ey8_S2lmnpYbXv3XXxtO-13" value="REST API" style="text;html=1;align=center;verticalAlign=middle;resizable=0;points=[];autosize=1;strokeColor=none;fillColor=none;" vertex="1" parent="1">
          <mxGeometry x="495" y="286.5" width="70" height="20" as="geometry" />
        </mxCell>
        <mxCell id="Ey8_S2lmnpYbXv3XXxtO-14" value="REST API" style="text;html=1;align=center;verticalAlign=middle;resizable=0;points=[];autosize=1;strokeColor=none;fillColor=none;" vertex="1" parent="1">
          <mxGeometry x="295" y="286.5" width="70" height="20" as="geometry" />
        </mxCell>
        <mxCell id="Ey8_S2lmnpYbXv3XXxtO-15" value="" style="sketch=0;aspect=fixed;html=1;points=[];align=center;image;fontSize=12;image=img/lib/mscae/Database_General.svg;" vertex="1" parent="1">
          <mxGeometry x="415" y="160" width="38" height="50" as="geometry" />
        </mxCell>
        <mxCell id="Ey8_S2lmnpYbXv3XXxtO-16" value="MongoDB" style="text;html=1;align=center;verticalAlign=middle;resizable=0;points=[];autosize=1;strokeColor=none;fillColor=none;" vertex="1" parent="1">
          <mxGeometry x="400" y="130" width="70" height="20" as="geometry" />
        </mxCell>
        <mxCell id="Ey8_S2lmnpYbXv3XXxtO-17" value="" style="sketch=0;aspect=fixed;html=1;points=[];align=center;image;fontSize=12;image=img/lib/mscae/aspect=fixed;html=1;perimeter=none;align=center;shadow=0;dashed=0;image;fontSize=12;image=img/lib/mscae/Azure_Database_for_MariaDB_servers.svg;" vertex="1" parent="1">
          <mxGeometry x="616" y="160" width="38" height="50" as="geometry" />
        </mxCell>
        <mxCell id="Ey8_S2lmnpYbXv3XXxtO-18" value="Spring Boot" style="text;html=1;align=center;verticalAlign=middle;resizable=0;points=[];autosize=1;strokeColor=none;fillColor=none;" vertex="1" parent="1">
          <mxGeometry x="20" y="270" width="80" height="20" as="geometry" />
        </mxCell>
        <mxCell id="Ey8_S2lmnpYbXv3XXxtO-19" value="Spring Boot" style="text;html=1;align=center;verticalAlign=middle;resizable=0;points=[];autosize=1;strokeColor=none;fillColor=none;" vertex="1" parent="1">
          <mxGeometry x="270" y="240" width="80" height="20" as="geometry" />
        </mxCell>
        <mxCell id="Ey8_S2lmnpYbXv3XXxtO-20" value="Spring Boot" style="text;html=1;align=center;verticalAlign=middle;resizable=0;points=[];autosize=1;strokeColor=none;fillColor=none;" vertex="1" parent="1">
          <mxGeometry x="695" y="270" width="80" height="20" as="geometry" />
        </mxCell>
        <mxCell id="Ey8_S2lmnpYbXv3XXxtO-21" value="/nodeJs" style="text;html=1;align=center;verticalAlign=middle;resizable=0;points=[];autosize=1;strokeColor=none;fillColor=none;" vertex="1" parent="1">
          <mxGeometry x="90" y="270" width="60" height="20" as="geometry" />
        </mxCell>
        <mxCell id="Ey8_S2lmnpYbXv3XXxtO-22" value="/nodeJs" style="text;html=1;align=center;verticalAlign=middle;resizable=0;points=[];autosize=1;strokeColor=none;fillColor=none;" vertex="1" parent="1">
          <mxGeometry x="346" y="240" width="60" height="20" as="geometry" />
        </mxCell>
        <mxCell id="Ey8_S2lmnpYbXv3XXxtO-23" value="/nodeJs" style="text;html=1;align=center;verticalAlign=middle;resizable=0;points=[];autosize=1;strokeColor=none;fillColor=none;" vertex="1" parent="1">
          <mxGeometry x="770" y="270" width="60" height="20" as="geometry" />
        </mxCell>
        <mxCell id="Ey8_S2lmnpYbXv3XXxtO-29" style="edgeStyle=orthogonalEdgeStyle;rounded=0;orthogonalLoop=1;jettySize=auto;html=1;exitX=0.25;exitY=0;exitDx=0;exitDy=0;entryX=0.25;entryY=1;entryDx=0;entryDy=0;" edge="1" parent="1" source="Ey8_S2lmnpYbXv3XXxtO-24" target="Ey8_S2lmnpYbXv3XXxtO-11">
          <mxGeometry relative="1" as="geometry" />
        </mxCell>
        <mxCell id="Ey8_S2lmnpYbXv3XXxtO-36" style="edgeStyle=orthogonalEdgeStyle;rounded=0;orthogonalLoop=1;jettySize=auto;html=1;exitX=1;exitY=0.25;exitDx=0;exitDy=0;entryX=0.25;entryY=1;entryDx=0;entryDy=0;" edge="1" parent="1" source="Ey8_S2lmnpYbXv3XXxtO-24" target="Ey8_S2lmnpYbXv3XXxtO-7">
          <mxGeometry relative="1" as="geometry" />
        </mxCell>
        <mxCell id="Ey8_S2lmnpYbXv3XXxtO-38" style="edgeStyle=orthogonalEdgeStyle;rounded=0;orthogonalLoop=1;jettySize=auto;html=1;exitX=0;exitY=0.25;exitDx=0;exitDy=0;entryX=0.75;entryY=1;entryDx=0;entryDy=0;" edge="1" parent="1" source="Ey8_S2lmnpYbXv3XXxtO-24" target="Ey8_S2lmnpYbXv3XXxtO-4">
          <mxGeometry relative="1" as="geometry" />
        </mxCell>
        <mxCell id="Ey8_S2lmnpYbXv3XXxtO-24" value="Access Service" style="rounded=1;whiteSpace=wrap;html=1;" vertex="1" parent="1">
          <mxGeometry x="375" y="440" width="120" height="60" as="geometry" />
        </mxCell>
        <mxCell id="Ey8_S2lmnpYbXv3XXxtO-26" style="edgeStyle=orthogonalEdgeStyle;rounded=0;orthogonalLoop=1;jettySize=auto;html=1;exitX=0.5;exitY=0;exitDx=0;exitDy=0;exitPerimeter=0;entryX=0.5;entryY=1;entryDx=0;entryDy=0;" edge="1" parent="1" source="Ey8_S2lmnpYbXv3XXxtO-25" target="Ey8_S2lmnpYbXv3XXxtO-24">
          <mxGeometry relative="1" as="geometry" />
        </mxCell>
        <mxCell id="Ey8_S2lmnpYbXv3XXxtO-25" value="Gennaro" style="shape=umlActor;verticalLabelPosition=bottom;verticalAlign=top;html=1;outlineConnect=0;" vertex="1" parent="1">
          <mxGeometry x="420" y="585" width="30" height="60" as="geometry" />
        </mxCell>
        <mxCell id="Ey8_S2lmnpYbXv3XXxtO-32" value="REST API" style="text;html=1;strokeColor=none;fillColor=none;align=center;verticalAlign=middle;whiteSpace=wrap;rounded=0;" vertex="1" parent="1">
          <mxGeometry x="404" y="370" width="60" height="30" as="geometry" />
        </mxCell>
        <mxCell id="Ey8_S2lmnpYbXv3XXxtO-33" value="Spring Boot /nodejs" style="text;html=1;strokeColor=none;fillColor=none;align=center;verticalAlign=middle;whiteSpace=wrap;rounded=0;" vertex="1" parent="1">
          <mxGeometry x="450" y="510" width="125" height="30" as="geometry" />
        </mxCell>
        <mxCell id="Ey8_S2lmnpYbXv3XXxtO-64" value="REST API" style="text;html=1;strokeColor=none;fillColor=none;align=center;verticalAlign=middle;whiteSpace=wrap;rounded=0;" vertex="1" parent="1">
          <mxGeometry x="190" y="400" width="60" height="30" as="geometry" />
        </mxCell>
        <mxCell id="Ey8_S2lmnpYbXv3XXxtO-65" value="REST API" style="text;html=1;strokeColor=none;fillColor=none;align=center;verticalAlign=middle;whiteSpace=wrap;rounded=0;" vertex="1" parent="1">
          <mxGeometry x="605" y="410" width="60" height="30" as="geometry" />
        </mxCell>
      </root>
    </mxGraphModel>
  </diagram>
</mxfile>
